<?xml version="1.0" encoding="UTF-8"?>
<svg width="64px" height="64px" viewBox="0 0 64 64" version="1.1" xmlns="http://www.w3.org/2000/svg" xmlns:xlink="http://www.w3.org/1999/xlink">
    <!-- Generator: Sketch 49.3 (51167) - http://www.bohemiancoding.com/sketch -->
    <title>git-tag</title>
    <desc>Created with Sketch.</desc>
    <defs></defs>
    <g id="git-tag" stroke="none" stroke-width="1" fill="none" fill-rule="evenodd">
        <path d="M14.9625449,15.9357932 L27.3695248,3.65477057 C28.928255,2.1118648 31.4387145,2.1118648 32.9974447,3.65477057 L45.4044247,15.9357932 C46.5429099,17.0627202 47.1834848,18.5981149 47.1834848,20.2000242 L47.1834848,51.8693783 C47.1834848,52.9739478 46.2880543,53.8693783 45.1834848,53.8693783 L15.1834848,53.8693783 C14.0789153,53.8693783 13.1834848,52.9739478 13.1834848,51.8693783 L13.1834848,20.2000242 C13.1834848,18.5981149 13.8240597,17.0627202 14.9625449,15.9357932 Z M30.1834848,21.7159682 C32.9449085,21.7159682 35.1834848,19.4666601 35.1834848,16.6919979 C35.1834848,13.9173357 32.9449085,11.6680276 30.1834848,11.6680276 C27.422061,11.6680276 25.1834848,13.9173357 25.1834848,16.6919979 C25.1834848,19.4666601 27.422061,21.7159682 30.1834848,21.7159682 Z" id="Combined-Shape" fill="#22292F" transform="translate(30.183485, 28.183485) rotate(-45.000000) translate(-30.183485, -28.183485) "></path>
    </g>
</svg>