<?xml version="1.0" encoding="UTF-8"?>
<svg width="64px" height="64px" viewBox="0 0 64 64" version="1.1" xmlns="http://www.w3.org/2000/svg" xmlns:xlink="http://www.w3.org/1999/xlink">
    <!-- Generator: Sketch 47.1 (45422) - http://www.bohemiancoding.com/sketch -->
    <title>icons/class</title>
    <desc>Created with Sketch.</desc>
    <defs></defs>
    <g id="Page-1" stroke="none" stroke-width="1" fill="none" fill-rule="evenodd">
        <g id="icons/class" fill="#1D1D1D">
            <path d="M13.0264469,30.1757223 C13.3156746,30.1757223 13.6916651,30.1323388 14.1544295,30.0455705 C14.6171939,29.9588022 15.0654902,29.7924987 15.4993319,29.5466551 C15.9331735,29.3008115 16.309164,28.9754351 16.6273145,28.5705163 C16.9454651,28.1655974 17.104538,27.6449952 17.104538,27.0086941 L17.104538,18.0716009 C17.104538,17.0593037 17.3069944,16.1771722 17.7119132,15.42518 C18.1168321,14.6731879 18.6085119,14.0513575 19.1869675,13.5596703 C19.765423,13.0679831 20.3727922,12.7064538 21.0090933,12.4750716 C21.6453944,12.2436894 22.1949189,12.128 22.6576833,12.128 L26.6056226,12.128 L26.6056226,16.0325553 L24.2195054,16.0325553 C23.6699727,16.0325553 23.2361375,16.1265529 22.917987,16.314551 C22.5998364,16.502549 22.3539965,16.7483889 22.1804599,17.0520781 C22.0069232,17.3557672 21.8984644,17.6883742 21.8550803,18.0499089 C21.8116961,18.4114436 21.7900043,18.7512811 21.7900043,19.0694317 L21.7900043,27.5293015 C21.7900043,28.3969848 21.6164703,29.1200434 21.269397,29.6984989 C20.9223236,30.2769544 20.5101803,30.7324813 20.0329544,31.0650933 C19.5557286,31.3977052 19.0640488,31.6435451 18.5579002,31.8026204 C18.0517516,31.9616957 17.6251471,32.0556933 17.2780738,32.0846161 L17.2780738,32.1713839 C17.6251471,32.2003067 18.0517516,32.2726126 18.5579002,32.3883037 C19.0640488,32.5039948 19.5557286,32.728143 20.0329544,33.0607549 C20.5101803,33.3933668 20.9223236,33.8705855 21.269397,34.4924252 C21.6164703,35.1142649 21.7900043,35.9457822 21.7900043,36.9870022 L21.7900043,45.1865683 C21.7900043,45.5047189 21.8116961,45.8445564 21.8550803,46.2060911 C21.8984644,46.5676258 22.0069232,46.9002328 22.1804599,47.2039219 C22.3539965,47.5076111 22.5998364,47.753451 22.917987,47.941449 C23.2361375,48.1294471 23.6699727,48.2234447 24.2195054,48.2234447 L26.6056226,48.2234447 L26.6056226,52.128 L22.6576833,52.128 C22.1949189,52.128 21.6453944,52.0123106 21.0090933,51.7809284 C20.3727922,51.5495462 19.765423,51.1880169 19.1869675,50.6963297 C18.6085119,50.2046425 18.1168321,49.5828121 17.7119132,48.83082 C17.3069944,48.0788278 17.104538,47.1966963 17.104538,46.1843991 L17.104538,37.5943774 C17.104538,36.9002308 16.9454651,36.3217839 16.6273145,35.8590195 C16.309164,35.3962551 15.9331735,35.0347258 15.4993319,34.7744208 C15.0654902,34.5141158 14.6171939,34.3333512 14.1544295,34.2321215 C13.6916651,34.1308918 13.3156746,34.0802777 13.0264469,34.0802777 L13.0264469,30.1757223 Z M51.1175531,34.0802777 C50.7994026,34.0802777 50.408951,34.1308918 49.9461866,34.2321215 C49.4834221,34.3333512 49.0351258,34.4996547 48.6012842,34.7310369 C48.1674425,34.9624191 47.7986826,35.2805649 47.4949935,35.6854837 C47.1913043,36.0904026 47.039462,36.6110048 47.039462,37.2473059 L47.039462,46.1843991 C47.039462,47.1966963 46.8370056,48.0788278 46.4320868,48.83082 C46.0271679,49.5828121 45.5354881,50.2046425 44.9570325,50.6963297 C44.378577,51.1880169 43.7712078,51.5495462 43.1349067,51.7809284 C42.4986056,52.0123106 41.9490811,52.128 41.4863167,52.128 L37.5383774,52.128 L37.5383774,48.2234447 L39.9244946,48.2234447 C40.4740273,48.2234447 40.9078625,48.1294471 41.226013,47.941449 C41.5441636,47.753451 41.7900035,47.5076111 41.9635401,47.2039219 C42.1370768,46.9002328 42.2455356,46.5676258 42.2889197,46.2060911 C42.3323039,45.8445564 42.3539957,45.5047189 42.3539957,45.1865683 L42.3539957,36.7266985 C42.3539957,35.8590152 42.5275297,35.1359566 42.874603,34.5575011 C43.2216764,33.9790456 43.6338197,33.5235187 44.1110456,33.1909067 C44.5882714,32.8582948 45.0799512,32.6196855 45.5860998,32.4750716 C46.0922484,32.3304577 46.5188529,32.2292295 46.8659262,32.1713839 L46.8659262,32.0846161 C46.5188529,32.0556933 46.0922484,31.9833874 45.5860998,31.8676963 C45.0799512,31.7520052 44.5882714,31.527857 44.1110456,31.1952451 C43.6338197,30.8626332 43.2216764,30.3854145 42.874603,29.7635748 C42.5275297,29.1417351 42.3539957,28.3102178 42.3539957,27.2689978 L42.3539957,19.0694317 C42.3539957,18.7512811 42.3323039,18.4114436 42.2889197,18.0499089 C42.2455356,17.6883742 42.1370768,17.3557672 41.9635401,17.0520781 C41.7900035,16.7483889 41.5441636,16.502549 41.226013,16.314551 C40.9078625,16.1265529 40.4740273,16.0325553 39.9244946,16.0325553 L37.5383774,16.0325553 L37.5383774,12.128 L41.4863167,12.128 C41.9490811,12.128 42.4986056,12.2436894 43.1349067,12.4750716 C43.7712078,12.7064538 44.378577,13.0679831 44.9570325,13.5596703 C45.5354881,14.0513575 46.0271679,14.6731879 46.4320868,15.42518 C46.8370056,16.1771722 47.039462,17.0593037 47.039462,18.0716009 L47.039462,26.6616226 C47.039462,27.3557692 47.1913043,27.9342161 47.4949935,28.3969805 C47.7986826,28.8597449 48.1674425,29.2212742 48.6012842,29.4815792 C49.0351258,29.7418842 49.4834221,29.9226488 49.9461866,30.0238785 C50.408951,30.1251082 50.7994026,30.1757223 51.1175531,30.1757223 L51.1175531,34.0802777 Z" id="{-}"></path>
        </g>
    </g>
</svg>