<?xml version="1.0" encoding="UTF-8"?>
<svg width="581px" height="130px" viewBox="0 0 581 130" version="1.1" xmlns="http://www.w3.org/2000/svg" xmlns:xlink="http://www.w3.org/1999/xlink">
    <!-- Generator: Sketch 47.1 (45422) - http://www.bohemiancoding.com/sketch -->
    <title>ember-data</title>
    <desc>Created with Sketch.</desc>
    <defs></defs>
    <g id="Page-1" stroke="none" stroke-width="1" fill="none" fill-rule="evenodd">
        <g id="ember-data" fill="#333333">
            <g id="®" transform="translate(291.000000, 105.000000)" font-size="24.104" font-family="LucidaGrande, Lucida Grande" font-weight="normal">
                <text>
                    <tspan x="0.8201" y="23.594891">®</tspan>
                </text>
            </g>
            <path d="M342.27,94.464 C341.7,88.726 336.54,90.861 336.54,90.861 C336.54,90.861 328.22,97.31 320.9,96.593 C313.58,95.876 315.88,79.516 315.88,79.516 C315.88,79.516 317.46,64.523 313.15,63.266 C308.85,62.01 303.54,67.174 303.54,67.174 C303.54,67.174 296.94,74.49 293.79,83.814 L292.93,84.101 C292.93,84.101 293.93,67.748 292.78,64.018 C291.92,62.153 284.03,62.297 282.74,65.596 C281.45,68.895 275.14,91.847 274.71,101.459 C274.71,101.459 262.37,111.931 251.61,113.652 C240.86,115.373 238.27,108.631 238.27,108.631 C238.27,108.631 267.54,100.455 266.53,77.072 C265.53,53.69 242.93,62.337 240.38,64.259 C237.91,66.118 224.7,74.083 220.85,96.14 C220.71,96.891 220.49,100.168 220.49,100.168 C220.49,100.168 209.15,107.77 202.84,109.779 C202.84,109.779 220.49,80.085 198.97,66.6 C189.21,60.719 181.47,73.055 181.47,73.055 C181.47,73.055 210.59,40.636 204.13,13.236 C201.06,0.188 194.54,-1.212 188.55,0.9 C179.46,4.486 176.02,9.794 176.02,9.794 C176.02,9.794 164.25,26.864 161.53,52.255 C158.8,77.646 154.78,108.344 154.78,108.344 C154.78,108.344 149.19,113.795 144.03,114.082 C138.86,114.369 141.16,98.733 141.16,98.733 C141.16,98.733 145.17,74.92 144.89,70.904 C144.6,66.887 144.31,64.735 139.58,63.301 C134.85,61.866 129.68,67.891 129.68,67.891 C129.68,67.891 116.05,88.548 114.91,91.704 L114.19,92.995 L113.47,92.134 C113.47,92.134 123.08,64.018 113.9,63.588 C104.72,63.157 98.7,73.629 98.7,73.629 C98.7,73.629 88.22,91.13 87.79,93.139 L87.08,92.278 C87.08,92.278 91.38,71.908 90.52,66.887 C89.66,61.866 84.92,62.87 84.92,62.87 C84.92,62.87 78.9,62.153 77.32,66.026 C75.74,69.9 70.01,95.577 69.29,103.754 C69.29,103.754 54.23,114.513 44.33,114.656 C34.43,114.8 35.43,108.379 35.43,108.379 C35.43,108.379 71.73,95.956 61.83,71.426 C57.38,65.114 52.22,63.129 44.9,63.272 C37.59,63.416 28.51,67.88 22.63,81.077 C19.81,87.372 18.79,93.345 18.22,97.867 C18.22,97.867 11.87,99.163 8.42,96.294 C4.98,93.425 3.21,96.294 3.21,96.294 C3.21,96.294 -2.7,103.828 3.18,106.124 C9.06,108.419 18.24,109.492 18.24,109.492 C19.08,113.509 21.54,120.331 28.7,125.771 C39.46,133.947 60.11,125.019 60.11,125.019 L68.57,120.268 C68.57,120.268 68.86,128.031 75.03,129.168 C81.19,130.298 83.78,129.15 94.54,103.042 C100.85,89.701 101.28,90.413 101.28,90.413 L101.99,90.27 C101.99,90.27 97.12,115.804 98.98,122.689 C100.85,129.575 109.02,128.858 109.02,128.858 C109.02,128.858 113.47,129.718 117.06,117.095 C120.64,104.471 127.53,90.556 127.53,90.556 L128.39,90.556 C128.39,90.556 125.38,116.664 129.97,124.985 C134.56,133.305 146.46,127.785 146.46,127.785 C146.46,127.785 154.78,123.585 156.08,122.293 C156.08,122.293 165.95,130.7 179.88,129.173 C211.02,123.045 222.09,114.771 222.09,114.771 C222.09,114.771 227.44,128.324 244.01,129.581 C262.95,131.015 273.27,119.103 273.27,119.103 C273.27,119.103 273.13,126.849 279.73,129.575 C286.33,132.301 290.78,116.986 290.78,116.986 L301.82,86.54 L302.83,86.54 C302.83,86.54 303.4,106.336 314.3,109.492 C325.2,112.648 339.41,102.101 339.41,102.101 C339.41,102.101 342.85,100.202 342.27,94.464 Z M33.71,97.299 C34.14,80.228 45.33,72.769 49.21,76.498 C53.08,80.228 51.64,88.261 44.33,93.282 C37.01,98.303 33.71,97.299 33.71,97.299 Z M179.31,31.168 C179.31,31.168 189.5,4.629 191.94,17.54 C194.38,30.451 170.56,68.895 170.56,68.895 C170.85,60.288 179.31,31.168 179.31,31.168 Z M191.51,105.045 C184.77,122.689 168.41,115.517 168.41,115.517 C168.41,115.517 166.55,109.205 171.86,91.561 C177.16,73.916 189.64,80.802 189.64,80.802 C189.64,80.802 198.25,87.4 191.51,105.045 Z M236.7,97.299 C236.7,97.299 235.12,91.704 241,80.945 C246.88,70.186 251.47,76.068 251.47,76.068 C251.47,76.068 256.49,81.519 250.75,89.696 C245.02,97.872 236.7,97.299 236.7,97.299 L236.7,97.299 Z" id="Fill-20" fill-rule="nonzero"></path>
            <path d="M393.28,29.765 C393.56,26.623 393.7,24.13 393.7,22.289 C393.7,19.865 393.48,18.181 393.05,17.238 C392.62,16.296 391.99,15.823 391.17,15.823 C389.7,15.823 388.38,16.732 387.19,18.55 C386.01,20.367 385.06,22.711 384.33,25.58 C383.61,28.45 382.83,31.569 381.98,34.938 C381.14,38.308 380.52,41.608 380.12,44.836 C379.74,48.066 379.42,50.977 379.19,53.57 C378.95,56.16 378.78,58.002 378.69,59.095 C378.49,61.325 378.33,63.474 378.21,65.542 C378.09,67.612 378,69.5 377.95,71.205 C377.9,72.912 377.88,74.401 377.88,75.674 C377.88,76.948 377.88,77.926 377.88,78.607 L377.88,79.291 C380.38,73.31 382.68,67.357 384.78,61.422 C385.65,58.893 386.52,56.255 387.38,53.511 C388.23,50.764 389.08,48.039 389.92,45.337 C390.76,42.635 391.48,39.96 392.06,37.31 C392.64,34.66 393.05,32.145 393.28,29.765 Z M361.52,75.693 C358.56,77.139 355.92,79.054 353.61,81.429 C351.3,83.804 349.37,86.935 347.82,90.829 C346.28,94.72 345.1,98.07 344.29,100.876 C343.48,103.679 343.08,106.213 343.08,108.477 C343.08,109.18 343.18,109.88 343.38,110.583 C343.58,111.286 343.95,111.918 344.49,112.481 C345.03,113.041 345.79,113.499 346.78,113.849 C347.76,114.202 349.04,114.377 350.62,114.377 C351.42,114.377 352.22,114.199 353.01,113.838 C353.79,113.483 354.54,113.014 355.26,112.438 C355.98,111.862 356.67,111.202 357.32,110.467 C357.97,109.732 358.57,108.964 359.1,108.167 C360.36,106.336 361.51,104.268 362.54,101.961 C362.41,101.328 362.29,100.321 362.2,98.939 C362.11,97.561 362.04,95.455 362,92.628 C361.95,89.8 361.9,87.479 361.86,85.67 C361.81,83.86 361.78,82.21 361.76,80.715 C361.73,79.221 361.7,78.001 361.66,77.05 C361.61,76.1 361.56,75.647 361.52,75.693 Z M408.18,115.449 C405,118.069 401.85,120.406 398.76,122.455 C397.46,123.311 396.09,124.159 394.65,124.994 C393.22,125.826 391.8,126.567 390.41,127.21 C389.02,127.854 387.67,128.376 386.35,128.783 C385.05,129.187 383.84,129.389 382.75,129.389 C382.1,129.389 381.15,129.246 379.89,128.961 C378.63,128.672 377.25,128.091 375.76,127.208 C374.26,126.327 372.77,125.051 371.27,123.384 C369.78,121.714 368.49,119.498 367.38,116.736 C365.71,118.451 363.95,120.083 362.08,121.631 C360.21,123.179 358.27,124.526 356.27,125.667 C354.27,126.812 352.24,127.73 350.2,128.419 C348.15,129.111 346.09,129.456 344.02,129.456 C341.1,129.456 338.58,128.85 336.44,127.636 C334.31,126.421 332.54,124.808 331.13,122.792 C329.71,120.777 328.66,118.491 327.96,115.933 C327.27,113.378 326.92,110.731 326.92,108 C326.92,105.087 327.29,102.138 328.03,99.152 C328.77,96.171 329.85,93.277 331.26,90.476 C332.67,87.676 334.24,84.749 335.97,81.695 C337.7,78.644 339.99,75.866 342.84,73.359 C345.69,70.854 348.62,68.964 351.62,67.688 C354.63,66.414 357.84,65.617 361.25,65.297 C361.39,59.467 362.01,54.329 363.11,49.886 C364.21,45.445 365.4,40.665 366.67,35.546 C367.94,30.429 369.58,25.716 371.59,21.408 C373.6,17.1 375.8,13.376 378.19,10.235 C380.58,7.094 383.13,4.636 385.84,2.865 C388.55,1.093 391.35,0.206 394.24,0.206 C396.34,0.206 398.14,0.756 399.62,1.858 C401.1,2.959 402.31,4.42 403.23,6.241 C404.14,8.063 404.8,10.175 405.21,12.58 C405.61,14.986 405.82,17.47 405.82,20.032 C405.82,21.632 405.8,23.277 405.77,24.967 C405.64,31.41 404.65,37.407 402.79,42.958 C400.93,48.508 399.09,53.995 397.28,59.418 C395.46,64.842 393.26,70.208 390.7,75.516 C386.78,83.639 384.28,89.154 383.21,92.057 C382.98,92.692 382.75,93.465 382.51,94.373 C382.28,95.28 382.06,96.266 381.85,97.332 C381.64,98.398 381.46,99.489 381.32,100.601 C381.18,101.713 381.11,102.79 381.11,103.832 C381.11,105.149 381.18,106.398 381.34,107.578 C381.49,108.757 381.74,109.813 382.09,110.742 C382.44,111.673 382.91,112.411 383.51,112.955 C384.09,113.499 384.82,113.771 385.7,113.771 C386.55,113.771 387.49,113.601 388.49,113.262 C389.5,112.923 390.57,112.46 391.69,111.87 C392.81,111.283 393.95,110.615 395.09,109.869 C396.24,109.121 397.35,108.364 398.42,107.594 C400.89,105.784 403.47,103.724 406.16,101.417 L408.18,115.449 L408.18,115.449 Z" id="Fill-22" fill-rule="nonzero"></path>
            <path d="M417.33,107.5 C417.33,108.658 417.4,109.78 417.56,110.868 C417.72,111.956 418,112.928 418.41,113.784 C418.81,114.641 419.35,115.335 420.02,115.869 C420.7,116.399 421.55,116.666 422.58,116.666 C424.25,116.666 425.75,115.944 427.1,114.498 C428.45,113.052 429.62,111.313 430.61,109.28 C431.6,107.247 432.4,105.144 433,102.976 C433.61,100.808 434,98.999 434.18,97.553 L439.2,75.669 C437.36,75.669 435.57,76.127 433.82,77.037 C432.07,77.95 430.42,79.183 428.87,80.742 C427.32,82.299 425.9,84.078 424.6,86.079 C423.29,88.082 422.01,90.552 420.76,93.487 C419.5,96.424 418.62,99.004 418.1,101.228 C417.58,103.452 417.33,105.545 417.33,107.5 Z M475.08,112.775 C474.05,114.226 472.67,115.928 470.94,117.88 C469.21,119.832 467.27,121.693 465.12,123.462 C462.96,125.231 460.65,126.731 458.18,127.956 C455.71,129.181 453.24,129.793 450.78,129.793 C447.8,129.793 445.31,128.85 443.32,126.96 C441.33,125.072 439.61,122.331 438.16,118.731 C437.07,119.975 435.74,121.241 434.16,122.528 C432.57,123.818 430.84,124.983 428.97,126.028 C427.09,127.07 425.13,127.927 423.1,128.592 C421.06,129.259 419.02,129.591 416.99,129.591 C414.83,129.591 412.74,129.149 410.7,128.266 C408.65,127.383 406.85,126.117 405.28,124.464 C403.7,122.81 402.45,120.796 401.51,118.419 C400.56,116.041 400.09,113.359 400.09,110.37 C400.09,107.018 400.57,103.574 401.51,100.041 C402.46,96.508 403.93,92.687 405.92,88.57 C407.9,84.455 410.04,80.901 412.31,77.904 C414.6,74.91 417.09,72.292 419.8,70.057 C422.51,67.82 425.36,66.043 428.37,64.723 C431.37,63.404 434.42,62.744 437.54,62.744 C438.58,62.744 439.39,62.949 439.98,63.355 C440.57,63.765 441.05,64.23 441.44,64.75 C441.82,65.272 442.19,65.784 442.55,66.282 C442.91,66.78 443.36,67.144 443.91,67.37 C444.45,67.596 445,67.744 445.57,67.812 C446.13,67.879 446.71,67.914 447.29,67.914 C447.79,67.914 448.3,67.903 448.82,67.879 C449.34,67.857 449.84,67.847 450.34,67.847 C451.02,67.847 451.65,67.914 452.24,68.049 C452.82,68.186 453.34,68.479 453.79,68.935 C454.24,69.39 454.59,70.022 454.84,70.838 C455.08,71.654 455.21,72.766 455.21,74.172 C455.21,76.318 454.98,78.698 454.53,81.313 C454.09,83.928 453.57,86.607 452.99,89.351 C452.41,92.095 451.75,95.221 451.01,98.735 C450.27,102.246 449.9,105.205 449.9,107.613 C449.9,109.67 450.09,111.278 450.47,112.435 C450.86,113.596 451.67,114.175 452.93,114.175 C453.87,114.175 454.86,113.941 455.89,113.475 C456.92,113.006 457.97,112.395 459.02,111.641 C460.08,110.884 461.13,110.028 462.19,109.07 C463.24,108.114 464.24,107.123 465.18,106.099 C467.38,103.698 469.6,100.983 471.85,97.959 L475.08,112.775 L475.08,112.775 Z" id="Fill-23" fill-rule="nonzero"></path>
            <path d="M510.63,115.117 C509.01,116.598 507,118.179 504.6,119.865 C502.2,121.545 499.61,123.096 496.83,124.507 C494.04,125.923 491.21,127.1 488.31,128.042 C485.42,128.985 482.67,129.456 480.07,129.456 C477.73,129.456 475.77,129.13 474.17,128.481 C472.58,127.83 471.29,126.922 470.3,125.754 C469.32,124.588 468.61,123.16 468.19,121.48 C467.76,119.795 467.54,117.945 467.54,115.925 C467.54,113.098 467.86,109.799 468.49,106.029 C469.78,98.231 470.61,93.853 470.98,92.889 C471.59,90.972 479.48,49.313 481.31,42.737 C483.02,37.376 484.07,33.889 484.47,32.271 C484.69,31.137 485.3,30.116 486.32,29.206 C487.25,28.39 488.29,27.72 489.46,27.2 C490.63,26.678 491.84,26.293 493.1,26.042 C494.35,25.792 495.49,25.668 496.51,25.668 C498.36,25.668 499.61,26.015 500.28,26.713 C500.94,27.408 501.27,28.339 501.27,29.505 C501.27,30.493 501.04,31.888 500.57,33.69 C500.11,35.494 499.59,37.548 499,39.853 C498.41,42.161 497.54,45.126 496.38,48.75 C495.22,52.374 487.77,92.878 487.35,95.434 C486.93,97.992 486.39,100.534 485.75,103.057 C485.1,105.58 484.78,107.874 484.78,109.937 C484.78,111.956 485,113.558 485.45,114.748 C485.9,115.936 486.82,116.531 488.21,116.531 C489.83,116.531 491.62,115.971 493.6,114.848 C495.57,113.728 497.57,112.368 499.59,110.774 C501.61,109.183 503.58,107.535 505.51,105.827 C507.44,104.123 509.15,102.664 510.63,101.452 L510.63,115.117" id="Fill-24" fill-rule="nonzero"></path>
            <path d="M522.63,107.5 C522.63,108.658 522.71,109.78 522.87,110.868 C523.03,111.956 523.31,112.928 523.71,113.784 C524.12,114.641 524.65,115.335 525.33,115.869 C526,116.399 526.86,116.666 527.89,116.666 C529.56,116.666 531.06,115.944 532.41,114.498 C533.76,113.052 534.93,111.313 535.92,109.28 C536.9,107.247 537.7,105.144 538.31,102.976 C538.92,100.808 539.31,98.999 539.49,97.553 L544.51,75.669 C542.67,75.669 540.88,76.127 539.13,77.037 C537.38,77.95 535.72,79.183 534.18,80.742 C532.63,82.299 531.2,84.078 529.9,86.079 C528.6,88.082 527.32,90.552 526.07,93.487 C524.81,96.424 523.92,99.004 523.41,101.228 C522.89,103.452 522.63,105.545 522.63,107.5 Z M580.39,112.775 C579.35,114.226 577.97,115.928 576.24,117.88 C574.52,119.832 572.58,121.693 570.42,123.462 C568.27,125.231 565.96,126.731 563.49,127.956 C561.02,129.181 558.55,129.793 556.08,129.793 C553.1,129.793 550.62,128.85 548.63,126.96 C546.64,125.072 544.91,122.331 543.47,118.731 C542.38,119.975 541.05,121.241 539.46,122.528 C537.88,123.818 536.15,124.983 534.27,126.028 C532.4,127.07 530.44,127.927 528.4,128.592 C526.37,129.259 524.33,129.591 522.3,129.591 C520.14,129.591 518.04,129.149 516,128.266 C513.96,127.383 512.15,126.117 510.58,124.464 C509.01,122.81 507.76,120.796 506.81,118.419 C505.87,116.041 505.4,113.359 505.4,110.37 C505.4,107.018 505.87,103.574 506.82,100.041 C507.77,96.508 509.24,92.687 511.22,88.57 C513.21,84.455 515.34,80.901 517.62,77.904 C519.9,74.91 522.4,72.292 525.1,70.057 C527.81,67.82 530.67,66.043 533.67,64.723 C536.67,63.404 539.73,62.744 542.85,62.744 C543.89,62.744 544.7,62.949 545.29,63.355 C545.87,63.765 546.36,64.23 546.74,64.75 C547.13,65.272 547.5,65.784 547.86,66.282 C548.22,66.78 548.67,67.144 549.21,67.37 C549.75,67.596 550.31,67.744 550.87,67.812 C551.44,67.879 552.01,67.914 552.6,67.914 C553.1,67.914 553.6,67.903 554.12,67.879 C554.64,67.857 555.15,67.847 555.65,67.847 C556.32,67.847 556.96,67.914 557.54,68.049 C558.13,68.186 558.65,68.479 559.1,68.935 C559.55,69.39 559.9,70.022 560.14,70.838 C560.39,71.654 560.51,72.766 560.51,74.172 C560.51,76.318 560.29,78.698 559.84,81.313 C559.39,83.928 558.88,86.607 558.3,89.351 C557.72,92.095 557.06,95.221 556.32,98.735 C555.58,102.246 555.21,105.205 555.21,107.613 C555.21,109.67 555.4,111.278 555.78,112.435 C556.16,113.596 556.98,114.175 558.24,114.175 C559.18,114.175 560.17,113.941 561.2,113.475 C562.23,113.006 563.27,112.395 564.33,111.641 C565.38,110.884 566.44,110.028 567.49,109.07 C568.55,108.114 569.55,107.123 570.49,106.099 C572.69,103.698 574.91,100.983 577.15,97.959 L580.39,112.775 L580.39,112.775 Z" id="Fill-25" fill-rule="nonzero"></path>
            <path d="M501.14,57.096 C501.49,56.929 502.09,56.871 502.93,56.918 C503.77,56.968 504.74,56.982 505.84,56.964 C506.94,56.944 508.13,56.922 509.41,56.893 C510.68,56.866 511.92,56.845 513.12,56.828 C514.32,56.814 515.44,56.804 516.48,56.795 C517.52,56.789 518.38,56.792 519.06,56.801 C519.86,56.811 520.46,57.283 520.87,58.217 C521.27,59.151 521.51,60.345 521.59,61.798 C521.67,63.479 521.34,64.87 520.59,65.966 C519.85,67.065 519,67.636 518.04,67.684 L495.04,68.838 L475.09,67.673 C473.87,67.533 472.93,67.392 472.26,67.249 C471.59,67.108 470.88,66.967 470.13,66.83 C469.37,66.691 468.42,66.551 467.27,66.408 C466.11,66.265 464.44,66.097 462.26,65.906 C461.29,65.804 460.53,65.553 459.99,65.153 C459.45,64.754 459.04,64.272 458.77,63.707 C458.5,63.144 458.33,62.55 458.26,61.924 C458.19,61.299 458.14,60.762 458.12,60.311 C458.08,59.601 458.45,59.039 459.21,58.627 C459.97,58.213 460.96,57.884 462.17,57.635 C463.39,57.387 464.72,57.215 466.19,57.117 C467.65,57.022 469.05,56.965 470.4,56.941 C471.74,56.919 472.95,56.892 474.01,56.86 C475.07,56.831 475.8,56.761 476.2,56.65 L501.14,57.096" id="Fill-26" fill-rule="nonzero"></path>
        </g>
    </g>
</svg>