<?xml version="1.0" encoding="UTF-8"?>
<svg width="64px" height="64px" viewBox="0 0 64 64" version="1.1" xmlns="http://www.w3.org/2000/svg" xmlns:xlink="http://www.w3.org/1999/xlink">
    <!-- Generator: Sketch 47.1 (45422) - http://www.bohemiancoding.com/sketch -->
    <title>icons/guide</title>
    <desc>Created with Sketch.</desc>
    <defs></defs>
    <g id="Page-1" stroke="none" stroke-width="1" fill="none" fill-rule="evenodd">
        <g id="icons/guide">
            <g id="Group" transform="translate(8.000000, 10.000000)"></g>
            <g id="Group-2" transform="translate(9.000000, 15.000000)" fill="#333333">
                <path d="M2,3.0802869 C1.33083173,3.26932764 0.664165068,3.48317874 0,3.72184018 C0,11.9866731 7.10542736e-15,20.2515059 0,32.6487553 C10,29.3428221 19.5555556,32.5128205 24,36 C26.6666667,33.3846154 38,29.3428221 48,32.6487553 C48,20.2515059 48,11.9866731 48,3.72184018 C47.3358349,3.48317874 46.6691683,3.26932764 46,3.0802869 C46,10.7867956 46,18.9091497 46,30.3804574 C39.5466667,27.4601525 32.2133333,28.3333333 24,33 L24,19.1874034 L24,33 C15.2,28.3333333 7.86666667,27.4601525 2,30.3804574 C2,18.9091497 2,10.7867956 2,3.08029708 Z" id="Combined-Shape"></path>
                <g id="Group" transform="translate(5.000000, 0.000000)">
                    <path d="M20,2.43932922 C25.9761905,-0.561160243 31.9761905,-0.793592525 38,1.74203237 C38,9.34890706 38,15.3076256 38,26.7179376 C32.7619048,24.6894377 26.7619048,25.4501251 20,29 L20,2.43932922 Z" id="Rectangle-3"></path>
                    <path d="M0,2.43932922 C5.97619048,-0.561160243 11.9761905,-0.793592525 18,1.74203237 C18,9.34890706 18,15.3076256 18,26.7179376 C12.7619048,24.6894377 6.76190476,25.4501251 0,29 L0,2.43932922 Z" id="Rectangle-3" transform="translate(9.000000, 14.500000) scale(-1, 1) translate(-9.000000, -14.500000) "></path>
                </g>
            </g>
        </g>
    </g>
</svg>