<?xml version="1.0" encoding="UTF-8"?>
<svg width="64px" height="64px" viewBox="0 0 64 64" version="1.1" xmlns="http://www.w3.org/2000/svg" xmlns:xlink="http://www.w3.org/1999/xlink">
    <!-- Generator: Sketch 49.1 (51147) - http://www.bohemiancoding.com/sketch -->
    <title>search</title>
    <desc>Created with Sketch.</desc>
    <defs></defs>
    <g id="search" stroke="none" stroke-width="1"  fill-rule="evenodd">
        <g fill-rule="nonzero" id="Shape">
            <path d="M23.9967955,40.7417408 C14.7482782,40.7417408 7.25087346,33.2447071 7.25087346,23.9966474 C7.25087346,14.7485876 14.7482782,7.25155394 23.9967955,7.25155394 C33.2453129,7.25155394 40.7427176,14.7485876 40.7427176,23.9966474 C40.7617298,28.4435232 39.0035383,32.7137581 35.858938,35.8582029 C32.7143376,39.0026476 28.4438914,40.7607522 23.9967955,40.7417408 Z M62.8821905,57.6717043 L43.5336779,38.3206185 C46.6079604,34.181269 48.2414184,29.1487738 48.1841415,23.9930768 C48.1381019,12.8562062 40.4637666,3.20258997 29.6237338,0.645771 C18.7837011,-1.91104797 7.6039797,3.29549595 2.58553732,13.2378163 C-2.43290507,23.1801366 0.0182451687,35.2662592 8.51365302,42.4681473 C17.0090609,49.6700355 29.3339638,50.1101488 38.3214754,43.532563 L57.6735188,62.8836488 C58.3529527,63.5965537 59.2947978,64 60.27964,64 C61.2644823,64 62.2063274,63.5965537 62.8857613,62.8836488 C63.5979966,62.2036586 64.0006587,61.2616597 63.9999992,60.2769693 C63.9993397,59.2922789 63.5954163,58.3508201 62.8822708,57.6717845 L62.8821905,57.6717043 Z"></path>
        </g>
    </g>
</svg>
