<?xml version="1.0" encoding="UTF-8"?>
<svg width="207px" height="112px" viewBox="0 0 207 112" version="1.1" xmlns="http://www.w3.org/2000/svg" xmlns:xlink="http://www.w3.org/1999/xlink">
    <!-- Generator: Sketch 43.2 (39069) - http://www.bohemiancoding.com/sketch -->
    <title>Group 2 Copy 2</title>
    <desc>Created with Sketch.</desc>
    <defs></defs>
    <g id="Page-1" stroke="none" stroke-width="1" fill="none" fill-rule="evenodd">
        <g id="Artboard" transform="translate(-3753.000000, -1438.000000)">
            <g id="Group-2-Copy-2" transform="translate(3856.500000, 1494.000000) rotate(-270.000000) translate(-3856.500000, -1494.000000) translate(3800.500000, 1390.500000)">
                <path d="M58,0.10302858 C61.4233605,0.587161626 64,2.77030443 64,6.5 C64,9.04689431 62.7984863,10.872615 60.946315,11.9286154 C67.7383819,50.0005492 85.9269792,84.1676139 111.889778,110.835782 C94.1008163,137.996543 83.0994582,169.936996 81.2710277,204.290455 C73.3877796,205.481847 65.2777874,206.103029 57,206.103029 C47.9939688,206.103029 39.1865552,205.367742 30.6536753,203.962809 C28.6160099,170.119067 17.6730169,138.655542 0.117929176,111.847551 C26.6094934,85.0342671 45.1754146,50.4837501 52.0536854,11.928617 C50.2015137,10.872615 49,9.04689431 49,6.5 C49,2.77030443 51.5766395,0.587161626 55,0.10302858 L55,112 L58,112 L58,0.10302858 Z" id="Combined-Shape" fill="#333333"></path>
                <g id="Group" transform="translate(56.255781, 161.384408) rotate(-90.000000) translate(-56.255781, -161.384408) translate(29.755781, 134.884408)">
                    <circle id="Oval-4" cx="26.1203697" cy="26.1203697" r="26.1203697"></circle>
                    <path d="M39.3872311,28.8634493 C39.3872311,28.8634493 31.4436445,34.4931501 26.2234511,34.5682241 C21.0032578,34.6432981 21.5334002,31.2836311 21.5334002,31.2836311 C21.5334002,31.2836311 40.6741093,24.7831568 35.4539159,11.9480495 C33.1067528,8.64564226 30.3833595,7.60648253 26.5270004,7.68155652 C22.666366,7.75663051 17.8822576,10.0924071 14.7783589,16.9979416 C13.294815,20.291866 12.7561218,23.4169798 12.4525725,25.7828709 C12.4525725,25.7828709 9.10497918,26.4615058 7.28795858,24.9604502 C5.47093795,23.4593945 4.53891326,24.9604502 4.53891326,24.9604502 C4.53891326,24.9604502 1.41791313,28.9024708 4.52181189,30.1036546 C7.62571062,31.3044143 12.4653985,31.8659847 12.4653985,31.8659847 C12.9057588,33.9676322 14.2011876,37.5372519 17.9805905,40.3837013 C23.6539702,44.6620704 34.5475432,39.9905172 34.5475432,39.9905172 C34.5475432,39.9905172 36.921928,39.0968318 39.011001,37.5041685 C42.0523392,34.8553635 41.6248049,26.7965737 39.3872311,28.8634493 Z M20.7541441,25.2429547 C20.9778415,16.4278768 26.802416,12.575597 28.8199135,14.5019462 C30.837411,16.4278768 30.0903461,20.5760996 26.2790484,23.1688434 C22.4719715,25.7611686 20.7541441,25.2429547 20.7541441,25.2429547 L20.7541441,25.2429547 Z" id="ember-e-copy-2" fill="#FFFFFF" fill-rule="nonzero"></path>
                </g>
            </g>
        </g>
    </g>
</svg>
