<?xml version="1.0" encoding="UTF-8"?>
<svg width="596px" height="161px" viewBox="0 0 596 161" version="1.1" xmlns="http://www.w3.org/2000/svg" xmlns:xlink="http://www.w3.org/1999/xlink">
    <!-- Generator: Sketch 47.1 (45422) - http://www.bohemiancoding.com/sketch -->
    <title>ember-cli</title>
    <desc>Created with Sketch.</desc>
    <defs></defs>
    <g id="Page-1" stroke="none" stroke-width="1" fill="none" fill-rule="evenodd">
        <g id="ember-cli" fill="#333333">
            <path d="M421.536329,116.413019 C420.826329,109.334019 414.456329,111.967019 414.456329,111.967019 C414.456329,111.967019 404.196329,119.924019 395.166329,119.039019 C386.146329,118.154019 388.976329,97.9730187 388.976329,97.9730187 C388.976329,97.9730187 390.916329,79.4760187 385.616329,77.9260187 C380.306329,76.3760187 373.756329,82.7470187 373.756329,82.7470187 C373.756329,82.7470187 365.616329,91.7720187 361.716329,103.275019 L360.656329,103.629019 C360.656329,103.629019 361.896329,83.4550187 360.486329,78.8540187 C359.416329,76.5530187 349.686329,76.7300187 348.096329,80.8000187 C346.506329,84.8700187 338.716329,113.185019 338.186329,125.042019 C338.186329,125.042019 322.966329,137.960019 309.696329,140.084019 C296.416329,142.207019 293.236329,133.890019 293.236329,133.890019 C293.236329,133.890019 329.336329,123.803019 328.096329,94.9570187 C326.856329,66.1120187 298.986329,76.7790187 295.836329,79.1510187 C292.786329,81.4440187 276.486329,91.2690187 271.736329,118.480019 C271.576329,119.407019 271.296329,123.449019 271.296329,123.449019 C271.296329,123.449019 257.306329,132.828019 249.526329,135.306019 C249.526329,135.306019 271.296329,98.6740187 244.746329,82.0390187 C232.716329,74.7830187 223.156329,90.0020187 223.156329,90.0020187 C223.156329,90.0020187 259.076329,50.0080187 251.116329,16.2080187 C247.326329,0.111018731 239.286329,-1.61598127 231.896329,0.988018731 C220.676329,5.41301873 216.436329,11.9600187 216.436329,11.9600187 C216.436329,11.9600187 201.916329,33.0190187 198.556329,64.3420187 C195.196329,95.6650187 190.236329,133.536019 190.236329,133.536019 C190.236329,133.536019 183.336329,140.261019 176.966329,140.615019 C170.596329,140.969019 173.426329,121.679019 173.426329,121.679019 C173.426329,121.679019 178.386329,92.3030187 178.026329,87.3480187 C177.676329,82.3930187 177.326329,79.7380187 171.486329,77.9690187 C165.646329,76.1990187 159.276329,83.6320187 159.276329,83.6320187 C159.276329,83.6320187 142.456329,109.115019 141.046329,113.008019 L140.156329,114.601019 L139.276329,113.539019 C139.276329,113.539019 151.136329,78.8540187 139.806329,78.3230187 C128.476329,77.7920187 121.046329,90.7100187 121.046329,90.7100187 C121.046329,90.7100187 108.126329,112.300019 107.596329,114.778019 L106.716329,113.716019 C106.716329,113.716019 112.026329,88.5870187 110.956329,82.3930187 C109.896329,76.1990187 104.056329,77.4380187 104.056329,77.4380187 C104.056329,77.4380187 96.6263288,76.5530187 94.6763288,81.3310187 C92.7363288,86.1090187 85.6563288,117.786019 84.7663288,127.873019 C84.7663288,127.873019 66.1863288,141.146019 53.9763288,141.323019 C41.7663288,141.500019 43.0063288,133.579019 43.0063288,133.579019 C43.0063288,133.579019 87.7763288,118.253019 75.5663288,87.9920187 C70.0763288,80.2060187 63.7063288,77.7560187 54.6863288,77.9330187 C45.6563288,78.1100187 34.4663288,83.6170187 27.2063288,99.8980187 C23.7363288,107.664019 22.4763288,115.032019 21.7663288,120.610019 C21.7663288,120.610019 13.9363288,122.210019 9.68632885,118.671019 C5.43632885,115.132019 3.25632885,118.671019 3.25632885,118.671019 C3.25632885,118.671019 -4.04367115,127.965019 3.21632885,130.797019 C10.4763288,133.628019 21.7963288,134.952019 21.7963288,134.952019 L21.7863288,134.952019 C22.8263288,139.907019 25.8563288,148.323019 34.6963288,155.034019 C47.9663288,165.121019 73.4463288,154.107019 73.4463288,154.107019 L83.8863288,148.245019 C83.8863288,148.245019 84.2363288,157.823019 91.8463288,159.224019 C99.4563288,160.619019 102.646329,159.203019 115.916329,126.995019 C123.706329,110.538019 124.236329,111.415019 124.236329,111.415019 L125.116329,111.238019 C125.116329,111.238019 119.096329,142.738019 121.406329,151.233019 C123.706329,159.727019 133.786329,158.842019 133.786329,158.842019 C133.786329,158.842019 139.276329,159.904019 143.696329,144.331019 C148.126329,128.758019 156.616329,111.592019 156.616329,111.592019 L157.676329,111.592019 C157.676329,111.592019 153.966329,143.800019 159.626329,154.064019 C165.286329,164.328019 179.976329,157.518019 179.976329,157.518019 C179.976329,157.518019 190.236329,152.337019 191.836329,150.744019 C191.836329,150.744019 204.016329,161.114019 221.206329,159.232019 C259.616329,151.672019 273.276329,141.464019 273.276329,141.464019 C273.276329,141.464019 279.866329,158.184019 300.316329,159.734019 C323.676329,161.504019 336.416329,146.808019 336.416329,146.808019 C336.416329,146.808019 336.236329,156.365019 344.376329,159.727019 C352.516329,163.089019 358.006329,144.196019 358.006329,144.196019 L371.636329,106.637019 L372.866329,106.637019 C372.866329,106.637019 373.576329,131.059019 387.026329,134.952019 C400.476329,138.845019 417.996329,125.834019 417.996329,125.834019 C417.996329,125.834019 422.246329,123.491019 421.536329,116.413019 L421.536329,116.413019 Z M40.8863288,119.910019 C41.4163288,98.8510187 55.2163288,89.6480187 59.9963288,94.2500187 C64.7763288,98.8510187 63.0063288,108.761019 53.9763288,114.955019 C44.9563288,121.148019 40.8863288,119.910019 40.8863288,119.910019 L40.8863288,119.910019 Z M220.506329,38.3280187 C220.506329,38.3280187 233.066329,5.59001873 236.076329,21.5170187 C239.086329,37.4430187 209.706329,84.8700187 209.706329,84.8700187 C210.066329,74.2520187 220.506329,38.3280187 220.506329,38.3280187 L220.506329,38.3280187 Z M235.546329,129.466019 C227.226329,151.233019 207.056329,142.384019 207.056329,142.384019 C207.056329,142.384019 204.756329,134.598019 211.296329,112.831019 C217.846329,91.0640187 233.246329,99.5590187 233.246329,99.5590187 C233.246329,99.5590187 243.866329,107.699019 235.546329,129.466019 L235.546329,129.466019 Z M291.286329,119.910019 C291.286329,119.910019 289.346329,113.008019 296.596329,99.7360187 C303.856329,86.4630187 309.516329,93.7190187 309.516329,93.7190187 C309.516329,93.7190187 315.706329,100.443019 308.636329,110.530019 C301.556329,120.618019 291.286329,119.910019 291.286329,119.910019 L291.286329,119.910019 Z" id="Fill-13" fill-rule="nonzero"></path>
            <path d="M434.606329,160.128019 C429.476329,160.128019 424.976329,159.188019 421.106329,157.305019 C417.226329,155.424019 413.986329,152.903019 411.366329,149.747019 C408.746329,146.592019 406.766329,142.938019 405.426329,138.785019 C404.086329,134.633019 403.426329,130.315019 403.426329,125.830019 C403.426329,122.621019 403.976329,118.771019 405.096329,114.287019 C406.206329,109.802019 407.416329,105.886019 408.726329,102.537019 C410.036329,99.1860187 411.646329,95.9900187 413.566329,92.9440187 C415.486329,89.9010187 417.706329,87.2270187 420.246329,84.9310187 C422.776329,82.6330187 425.606329,80.8060187 428.716329,79.4500187 C431.836329,78.0920187 435.256329,77.4140187 438.986329,77.4140187 C442.346329,77.4140187 445.446329,77.8990187 448.306329,78.8660187 C451.166329,79.8360187 453.606329,81.1810187 455.646329,82.8950187 C457.676329,84.6130187 459.266329,86.6460187 460.416329,88.9980187 C461.556329,91.3530187 462.136329,93.8870187 462.136329,96.5980187 C462.136329,98.4810187 461.866329,100.335019 461.326329,102.162019 C460.786329,103.989019 459.736329,106.135019 458.186329,108.597019 C456.626329,111.061019 455.116329,112.738019 453.646329,113.622019 C452.176329,114.509019 450.516329,114.951019 448.656329,114.951019 C445.856329,114.951019 444.046329,114.260019 443.236329,112.875019 C441.886329,110.716019 441.466329,108.806019 441.966329,107.145019 C442.126329,106.261019 442.626329,104.211019 443.456329,100.999019 C443.566329,100.557019 443.586329,99.5610187 443.536329,98.0100187 C443.536329,96.6810187 443.396329,95.5750187 443.116329,94.6880187 C442.846329,93.8040187 442.236329,93.3590187 441.306329,93.3590187 C439.046329,93.3590187 437.116329,93.9000187 435.516329,94.9770187 C433.916329,96.0600187 432.556329,97.4690187 431.416329,99.2150187 C430.286329,100.957019 429.176329,103.421019 428.076329,106.604019 C426.966329,109.789019 426.186329,112.460019 425.716329,114.619019 C425.246329,116.778019 424.956329,118.841019 424.846329,120.807019 C424.736329,122.771019 424.686329,124.418019 424.686329,125.747019 C424.686329,127.740019 424.866329,129.816019 425.226329,131.976019 C425.576329,134.135019 426.296329,136.115019 427.366329,137.915019 C428.446329,139.712019 429.836329,141.207019 431.546329,142.399019 C433.256329,143.589019 435.456329,144.183019 438.156329,144.183019 C440.816329,144.183019 443.756329,143.366019 446.966329,141.735019 C450.176329,140.101019 453.396329,138.038019 456.636329,135.547019 C459.876329,133.055019 462.966329,130.315019 465.896329,127.325019 C468.836329,124.335019 471.346329,121.512019 473.456329,118.854019 L479.186329,128.488019 C475.036329,134.413019 470.546329,139.699019 465.736329,144.349019 C463.686329,146.343019 461.456329,148.282019 459.046329,150.163019 C456.636329,152.046019 454.116329,153.720019 451.486329,155.188019 C448.856329,156.654019 446.116329,157.846019 443.266329,158.757019 C440.416329,159.673019 437.526329,160.128019 434.606329,160.128019" id="Fill-14" fill-rule="nonzero"></path>
            <path d="M494.406329,94.2970187 C496.906329,89.8310187 499.556329,84.8050187 502.366329,79.2230187 C505.176329,73.6400187 507.826329,67.8910187 510.326329,61.9700187 C512.826329,56.0530187 514.986329,50.1480187 516.826329,44.2580187 C518.656329,38.3690187 519.816329,32.8830187 520.316329,27.8010187 C520.316329,26.1830187 520.276329,24.8010187 520.206329,23.6570187 C520.126329,22.5130187 519.876329,21.9400187 519.456329,21.9400187 C517.936329,21.9400187 516.296329,22.9920187 514.536329,25.0950187 C512.776329,27.1980187 511.016329,30.0430187 509.266329,33.6330187 C507.506329,37.2230187 505.406329,43.0600187 502.966329,51.1480187 C500.526329,59.2330187 499.306329,63.2780187 499.306329,63.2800187 C499.306329,63.2800187 498.566329,67.0340187 497.066329,74.5370187 C495.576329,82.0380187 494.696329,88.6260187 494.406329,94.2970187 L494.406329,94.2970187 Z M494.326329,160.128019 C491.346329,160.128019 488.576329,158.834019 486.016329,156.246019 C483.446329,153.656019 481.216329,150.184019 479.316329,145.823019 C477.416329,141.464019 475.926329,136.409019 474.846329,130.660019 C473.776329,124.911019 473.236329,118.876019 473.236329,112.554019 C473.236329,107.121019 474.036329,99.8690187 475.626329,90.7980187 C477.226329,81.7270187 478.026329,77.1920187 478.026329,77.1920187 C478.026329,77.1920187 479.236329,72.6650187 481.646329,63.6020187 C484.066329,54.5420187 486.496329,47.2740187 488.926329,41.8010187 C491.356329,36.3310187 493.996329,31.2170187 496.856329,26.4620187 C499.706329,21.7070187 502.696329,17.5620187 505.826329,14.0290187 C508.956329,10.4980187 512.226329,7.72001873 515.646329,5.70301873 C519.056329,3.68301873 522.516329,2.67301873 526.046329,2.67301873 C528.606329,2.67301873 530.726329,3.16301873 532.396329,4.14101873 C534.066329,5.11901873 535.376329,6.41001873 536.326329,8.01701873 C537.286329,9.62201873 537.956329,11.4410187 538.346329,13.4720187 C538.726329,15.5050187 538.926329,17.5760187 538.926329,19.6810187 C538.926329,24.9160187 538.306329,30.2470187 537.066329,35.6740187 C535.826329,41.1020187 534.156329,46.5590187 532.056329,52.0420187 C529.956329,57.5260187 527.526329,63.0230187 524.766329,68.5340187 C521.996329,74.0470187 519.116329,79.5170187 516.126329,84.9450187 C513.136329,90.3720187 510.126329,95.7190187 507.106329,100.978019 C504.086329,106.239019 501.296329,111.383019 498.736329,116.406019 C498.456329,116.966019 498.166329,117.692019 497.866329,118.584019 C497.556329,119.479019 497.266329,120.440019 496.986329,121.474019 C496.716329,122.508019 496.436329,123.609019 496.156329,124.783019 C495.876329,125.956019 495.656329,127.100019 495.486329,128.214019 L495.486329,129.388019 C495.486329,130.840019 495.646329,132.249019 495.946329,133.618019 C496.256329,134.984019 496.626329,136.214019 497.076329,137.301019 C497.516329,138.392019 497.986329,139.257019 498.486329,139.900019 C498.986329,140.540019 499.456329,140.862019 499.906329,140.862019 C500.986329,140.862019 502.216329,140.639019 503.606329,140.192019 C504.996329,139.744019 506.466329,139.144019 508.026329,138.392019 C509.586329,137.639019 511.186329,136.774019 512.826329,135.796019 C514.476329,134.818019 516.056329,133.827019 517.596329,132.822019 C521.166329,130.478019 534.176329,120.949019 538.086329,117.879019 L542.886329,137.767019 C537.816329,141.137019 526.056329,148.574019 521.096329,151.205019 C518.936329,152.311019 516.696329,153.401019 514.386329,154.481019 C512.076329,155.561019 509.756329,156.522019 507.416329,157.364019 C505.076329,158.207019 502.796329,158.880019 500.576329,159.378019 C498.346329,159.879019 496.266329,160.128019 494.326329,160.128019 L494.326329,160.128019 Z" id="Fill-15" fill-rule="nonzero"></path>
            <path d="M595.086329,127.982019 C594.766329,127.295019 594.326329,126.690019 593.766329,126.165019 C593.216329,125.640019 592.596329,125.211019 591.906329,124.881019 C591.216329,124.552019 590.516329,124.331019 589.826329,124.220019 C589.126329,124.110019 588.466329,124.126019 587.856329,124.268019 C587.246329,124.412019 586.776329,124.734019 586.336329,125.116019 C585.466329,125.885019 584.576329,126.724019 583.696329,127.547019 C582.206329,128.789019 581.656329,129.369019 579.856329,130.957019 C577.476329,133.062019 575.036329,135.096019 572.546329,137.062019 C570.056329,139.026019 567.596329,140.703019 565.156329,142.085019 C562.716329,143.470019 560.506329,144.161019 558.516329,144.161019 C556.796329,144.161019 555.656329,143.427019 555.106329,141.962019 C554.556329,140.496019 554.276329,138.517019 554.276329,136.025019 C554.276329,133.480019 554.676329,130.651019 555.476329,127.538019 C556.266329,124.426019 556.926329,121.291019 557.446329,118.135019 C557.976329,114.980019 558.946329,111.168019 560.376329,106.696019 C561.796329,102.225019 562.876329,98.5690187 563.606329,95.7240187 C564.336329,92.8790187 564.986329,90.3440187 565.556329,88.1180187 C566.116329,85.8950187 566.406329,84.1750187 566.406329,82.9560187 C566.406329,81.5170187 565.996329,80.3680187 565.176329,79.5080187 C564.366329,78.6510187 562.816329,78.2220187 560.526329,78.2220187 C559.276329,78.2220187 557.876329,78.3780187 556.326329,78.6830187 C554.776329,78.9940187 553.286329,79.4680187 551.836329,80.1110187 C550.396329,80.7570187 549.106329,81.5820187 547.966329,82.5890187 C546.716329,83.7090187 545.946329,84.9680187 545.676329,86.3660187 C545.186329,88.3620187 543.886329,92.6670187 541.786329,99.2790187 C539.526329,107.393019 538.016329,112.630019 537.256329,114.996019 C536.796329,116.182019 535.776329,121.586019 534.186329,131.206019 C533.406329,135.856019 533.016329,139.926019 533.016329,143.414019 C533.016329,145.905019 533.276329,148.190019 533.806329,150.264019 C534.336329,152.342019 535.206329,154.100019 536.426329,155.538019 C537.636329,156.979019 539.236329,158.099019 541.196329,158.900019 C543.166329,159.704019 545.586329,160.106019 548.466329,160.106019 C551.676329,160.106019 555.066329,159.524019 558.636329,158.362019 C562.206329,157.199019 565.706329,155.745019 569.146329,154.003019 C572.576329,152.257019 575.776329,150.349019 578.736329,148.270019 C581.326329,146.456019 583.476329,144.750019 585.336329,143.124019 C587.566329,141.533019 589.786329,139.376019 592.736329,136.059019 C593.696329,134.973019 594.446329,133.998019 594.886329,133.037019 C595.316329,132.075019 595.546329,131.164019 595.556329,130.302019 C595.576329,129.442019 595.416329,128.667019 595.086329,127.982019" id="Fill-16" fill-rule="nonzero"></path>
            <path d="M563.326329,68.0080187 C566.156329,68.0080187 568.576329,67.5760187 570.596329,66.7090187 C572.616329,65.8430187 574.296329,64.7100187 575.616329,63.3140187 C576.946329,61.9160187 577.916329,60.3250187 578.526329,58.5350187 C579.136329,56.7480187 579.446329,54.9030187 579.446329,53.0030187 C579.446329,50.9350187 579.066329,49.1480187 578.316329,47.6380187 C577.576329,46.1290187 576.566329,44.9130187 575.286329,43.9910187 C574.016329,43.0700187 572.516329,42.3870187 570.806329,41.9370187 C569.086329,41.4920187 567.256329,41.2670187 565.326329,41.2670187 C562.216329,41.2670187 559.636329,41.7570187 557.556329,42.7350187 C555.486329,43.7130187 553.826329,44.9160187 552.576329,46.3380187 C551.336329,47.7630187 550.426329,49.2880187 549.876329,50.9080187 C549.326329,52.5290187 549.046329,53.9810187 549.046329,55.2670187 C549.046329,59.1220187 550.206329,62.2110187 552.536329,64.5280187 C554.856329,66.8480187 558.456329,68.0080187 563.326329,68.0080187" id="Fill-17" fill-rule="nonzero"></path>
            <text id="®" font-family="LucidaGrande, Lucida Grande" font-size="29.7565" font-weight="normal">
                <tspan x="359.546229" y="159.418766">®</tspan>
            </text>
        </g>
    </g>
</svg>