<?xml version="1.0" encoding="UTF-8"?>
<svg width="422px" height="161px" viewBox="0 0 422 161" version="1.1" xmlns="http://www.w3.org/2000/svg" xmlns:xlink="http://www.w3.org/1999/xlink">
    <!-- Generator: Sketch 47.1 (45422) - http://www.bohemiancoding.com/sketch -->
    <title>ember-logo</title>
    <desc>Created with Sketch.</desc>
    <defs></defs>
    <g id="Page-1" stroke="none" stroke-width="1" fill="none" fill-rule="evenodd">
        <g id="ember-logo" fill="#333333">
            <g>
                <path d="M421.536329,116.413019 C420.826329,109.334019 414.456329,111.967019 414.456329,111.967019 C414.456329,111.967019 404.196329,119.924019 395.166329,119.039019 C386.146329,118.154019 388.976329,97.9730187 388.976329,97.9730187 C388.976329,97.9730187 390.916329,79.4760187 385.616329,77.9260187 C380.306329,76.3760187 373.756329,82.7470187 373.756329,82.7470187 C373.756329,82.7470187 365.616329,91.7720187 361.716329,103.275019 L360.656329,103.629019 C360.656329,103.629019 361.896329,83.4550187 360.486329,78.8540187 C359.416329,76.5530187 349.686329,76.7300187 348.096329,80.8000187 C346.506329,84.8700187 338.716329,113.185019 338.186329,125.042019 C338.186329,125.042019 322.966329,137.960019 309.696329,140.084019 C296.416329,142.207019 293.236329,133.890019 293.236329,133.890019 C293.236329,133.890019 329.336329,123.803019 328.096329,94.9570187 C326.856329,66.1120187 298.986329,76.7790187 295.836329,79.1510187 C292.786329,81.4440187 276.486329,91.2690187 271.736329,118.480019 C271.576329,119.407019 271.296329,123.449019 271.296329,123.449019 C271.296329,123.449019 257.306329,132.828019 249.526329,135.306019 C249.526329,135.306019 271.296329,98.6740187 244.746329,82.0390187 C232.716329,74.7830187 223.156329,90.0020187 223.156329,90.0020187 C223.156329,90.0020187 259.076329,50.0080187 251.116329,16.2080187 C247.326329,0.111018731 239.286329,-1.61598127 231.896329,0.988018731 C220.676329,5.41301873 216.436329,11.9600187 216.436329,11.9600187 C216.436329,11.9600187 201.916329,33.0190187 198.556329,64.3420187 C195.196329,95.6650187 190.236329,133.536019 190.236329,133.536019 C190.236329,133.536019 183.336329,140.261019 176.966329,140.615019 C170.596329,140.969019 173.426329,121.679019 173.426329,121.679019 C173.426329,121.679019 178.386329,92.3030187 178.026329,87.3480187 C177.676329,82.3930187 177.326329,79.7380187 171.486329,77.9690187 C165.646329,76.1990187 159.276329,83.6320187 159.276329,83.6320187 C159.276329,83.6320187 142.456329,109.115019 141.046329,113.008019 L140.156329,114.601019 L139.276329,113.539019 C139.276329,113.539019 151.136329,78.8540187 139.806329,78.3230187 C128.476329,77.7920187 121.046329,90.7100187 121.046329,90.7100187 C121.046329,90.7100187 108.126329,112.300019 107.596329,114.778019 L106.716329,113.716019 C106.716329,113.716019 112.026329,88.5870187 110.956329,82.3930187 C109.896329,76.1990187 104.056329,77.4380187 104.056329,77.4380187 C104.056329,77.4380187 96.6263288,76.5530187 94.6763288,81.3310187 C92.7363288,86.1090187 85.6563288,117.786019 84.7663288,127.873019 C84.7663288,127.873019 66.1863288,141.146019 53.9763288,141.323019 C41.7663288,141.500019 43.0063288,133.579019 43.0063288,133.579019 C43.0063288,133.579019 87.7763288,118.253019 75.5663288,87.9920187 C70.0763288,80.2060187 63.7063288,77.7560187 54.6863288,77.9330187 C45.6563288,78.1100187 34.4663288,83.6170187 27.2063288,99.8980187 C23.7363288,107.664019 22.4763288,115.032019 21.7663288,120.610019 C21.7663288,120.610019 13.9363288,122.210019 9.68632885,118.671019 C5.43632885,115.132019 3.25632885,118.671019 3.25632885,118.671019 C3.25632885,118.671019 -4.04367115,127.965019 3.21632885,130.797019 C10.4763288,133.628019 21.7963288,134.952019 21.7963288,134.952019 L21.7863288,134.952019 C22.8263288,139.907019 25.8563288,148.323019 34.6963288,155.034019 C47.9663288,165.121019 73.4463288,154.107019 73.4463288,154.107019 L83.8863288,148.245019 C83.8863288,148.245019 84.2363288,157.823019 91.8463288,159.224019 C99.4563288,160.619019 102.646329,159.203019 115.916329,126.995019 C123.706329,110.538019 124.236329,111.415019 124.236329,111.415019 L125.116329,111.238019 C125.116329,111.238019 119.096329,142.738019 121.406329,151.233019 C123.706329,159.727019 133.786329,158.842019 133.786329,158.842019 C133.786329,158.842019 139.276329,159.904019 143.696329,144.331019 C148.126329,128.758019 156.616329,111.592019 156.616329,111.592019 L157.676329,111.592019 C157.676329,111.592019 153.966329,143.800019 159.626329,154.064019 C165.286329,164.328019 179.976329,157.518019 179.976329,157.518019 C179.976329,157.518019 190.236329,152.337019 191.836329,150.744019 C191.836329,150.744019 204.016329,161.114019 221.206329,159.232019 C259.616329,151.672019 273.276329,141.464019 273.276329,141.464019 C273.276329,141.464019 279.866329,158.184019 300.316329,159.734019 C323.676329,161.504019 336.416329,146.808019 336.416329,146.808019 C336.416329,146.808019 336.236329,156.365019 344.376329,159.727019 C352.516329,163.089019 358.006329,144.196019 358.006329,144.196019 L371.636329,106.637019 L372.866329,106.637019 C372.866329,106.637019 373.576329,131.059019 387.026329,134.952019 C400.476329,138.845019 417.996329,125.834019 417.996329,125.834019 C417.996329,125.834019 422.246329,123.491019 421.536329,116.413019 L421.536329,116.413019 Z M40.8863288,119.910019 C41.4163288,98.8510187 55.2163288,89.6480187 59.9963288,94.2500187 C64.7763288,98.8510187 63.0063288,108.761019 53.9763288,114.955019 C44.9563288,121.148019 40.8863288,119.910019 40.8863288,119.910019 L40.8863288,119.910019 Z M220.506329,38.3280187 C220.506329,38.3280187 233.066329,5.59001873 236.076329,21.5170187 C239.086329,37.4430187 209.706329,84.8700187 209.706329,84.8700187 C210.066329,74.2520187 220.506329,38.3280187 220.506329,38.3280187 L220.506329,38.3280187 Z M235.546329,129.466019 C227.226329,151.233019 207.056329,142.384019 207.056329,142.384019 C207.056329,142.384019 204.756329,134.598019 211.296329,112.831019 C217.846329,91.0640187 233.246329,99.5590187 233.246329,99.5590187 C233.246329,99.5590187 243.866329,107.699019 235.546329,129.466019 L235.546329,129.466019 Z M291.286329,119.910019 C291.286329,119.910019 289.346329,113.008019 296.596329,99.7360187 C303.856329,86.4630187 309.516329,93.7190187 309.516329,93.7190187 C309.516329,93.7190187 315.706329,100.443019 308.636329,110.530019 C301.556329,120.618019 291.286329,119.910019 291.286329,119.910019 L291.286329,119.910019 Z" id="Fill-13" fill-rule="nonzero"></path>
                <text id="®" font-family="LucidaGrande, Lucida Grande" font-size="29.7565" font-weight="normal">
                    <tspan x="359.546229" y="159.418766">®</tspan>
                </text>
            </g>
        </g>
    </g>
</svg>